<svg xmlns="http://www.w3.org/2000/svg" viewBox="0 0 64 64">
  <defs>
    <linearGradient id="g" x1="0" x2="1" y1="0" y2="1">
      <stop offset="0" stop-color="#7fffd4"/>
      <stop offset="0.5" stop-color="#4682b4"/>
      <stop offset="1" stop-color="#9370db"/>
    </linearGradient>
  </defs>
  <circle cx="32" cy="32" r="30" fill="url(#g)"/>
  <path d="M32 12a3 3 0 0 0-3 3v9.2a10.7 10.7 0 0 0-6.8 9.9c0 5.9 4.8 10.7 10.8 10.7s10.8-4.8 10.8-10.7a10.7 10.7 0 0 0-6.8-9.9V15a3 3 0 0 0-3-3zm0 16.5a5.6 5.6 0 0 1 5.6 5.6c0 3.1-2.5 5.6-5.6 5.6s-5.6-2.5-5.6-5.6 2.5-5.6 5.6-5.6z" fill="#ffffff" opacity="0.95"/>
  <path d="M18.5 38.5c1.7 7 7.5 12 13.5 12s11.8-5 13.5-12" fill="none" stroke="#ffffff" stroke-width="3.4" stroke-linecap="round"/>
</svg>
